<svg xmlns="http://www.w3.org/2000/svg" version="1.1" xmlns:xlink="http://www.w3.org/1999/xlink" xmlns:svgjs="http://svgjs.dev/svgjs" width="1000" height="750" viewBox="0 0 1000 750"><rect width="1000" height="750" fill="#cf5260"></rect><g transform="matrix(0.834,0,0,0.834,83,114.375)"><svg viewBox="0 0 576 360" data-background-color="#cf5260" preserveAspectRatio="xMidYMid meet" height="625" width="1000" xmlns="http://www.w3.org/2000/svg" xmlns:xlink="http://www.w3.org/1999/xlink"><g id="tight-bounds" transform="matrix(1,0,0,1,0,0)"><svg viewBox="0 0 576 360" height="360" width="576"><g><svg></svg></g><g><svg viewBox="0 0 576 360" height="360" width="576"><g><path xmlns="http://www.w3.org/2000/svg" d="M132.115 90l155.885-90 155.885 90v180l-155.885 90-155.885-90zM146.725 261.565l141.275 81.566 141.275-81.566v-163.13l-141.275-81.566-141.275 81.566z" fill="#f0f0f0" fill-rule="nonzero" stroke="none" stroke-width="1" stroke-linecap="butt" stroke-linejoin="miter" stroke-miterlimit="10" stroke-dasharray="" stroke-dashoffset="0" font-family="none" font-weight="none" font-size="none" text-anchor="none" style="mix-blend-mode: normal" data-fill-palette-color="tertiary"></path></g><g transform="matrix(1,0,0,1,185.86490066225167,99)"><svg viewBox="0 0 204.2701986754967 162" height="162" width="204.2701986754967"><g><svg viewBox="0 0 204.2701986754967 162" height="162" width="204.2701986754967"><g><svg viewBox="0 0 204.2701986754967 162" height="162" width="204.2701986754967"><g id="textblocktransform"><svg viewBox="0 0 204.2701986754967 162" height="162" width="204.2701986754967" id="textblock"><g><svg viewBox="0 0 204.2701986754967 162" height="162" width="204.2701986754967"><g transform="matrix(1,0,0,1,0,0)"><svg width="204.2701986754967" viewBox="1.2999999523162842 -37.45000076293945 47.60000228881836 37.75" height="162" data-palette-color="#f0f0f0"><path d="M7.65 0.3L7.65 0.3Q5.85 0.3 4.15 0.03 2.45-0.25 1.3-0.6L1.3-0.6 1.3-8.4Q2.3-8.4 3.33-8.4 4.35-8.4 5.35-8.4L5.35-8.4Q6.45-8.4 7.13-8.75 7.8-9.1 8.1-9.73 8.4-10.35 8.4-11.25L8.4-11.25 8.4-37.15 18.1-37.15 18.1-9.75Q18.1-6.55 17.07-4.3 16.05-2.05 13.75-0.88 11.45 0.3 7.65 0.3ZM35.25 0.3L35.25 0.3Q33.6 0.3 32.02 0.2 30.45 0.1 28.92-0.1 27.4-0.3 26-0.55 24.6-0.8 23.3-1.15L23.3-1.15 23.3-8.85Q25-8.7 26.97-8.6 28.95-8.5 30.97-8.45 33-8.4 34.75-8.4L34.75-8.4Q36.4-8.4 37.5-8.65 38.6-8.9 39.15-9.45 39.7-10 39.7-10.95L39.7-10.95 39.7-11.55Q39.7-12.65 38.92-13.2 38.15-13.75 37.1-13.75L37.1-13.75 34.45-13.75Q28.65-13.75 25.65-16.3 22.65-18.85 22.65-24.85L22.65-24.85 22.65-26.5Q22.65-32 25.95-34.73 29.25-37.45 35.45-37.45L35.45-37.45Q37.8-37.45 39.87-37.23 41.95-37 43.77-36.68 45.6-36.35 47.05-36L47.05-36 47.05-28.3Q44.75-28.5 41.87-28.63 39-28.75 36.65-28.75L36.65-28.75Q35.25-28.75 34.15-28.55 33.05-28.35 32.45-27.75 31.85-27.15 31.85-26L31.85-26 31.85-25.5Q31.85-24.25 32.65-23.6 33.45-22.95 35.1-22.95L35.1-22.95 38.4-22.95Q41.9-22.95 44.22-21.63 46.55-20.3 47.72-18.03 48.9-15.75 48.9-12.85L48.9-12.85 48.9-11.2Q48.9-6.45 47.25-3.95 45.6-1.45 42.55-0.58 39.5 0.3 35.25 0.3Z" opacity="1" transform="matrix(1,0,0,1,0,0)" fill="#f0f0f0" class="undefined-text-0" data-fill-palette-color="primary" id="text-0"></path></svg></g></svg></g></svg></g></svg></g><g></g></svg></g></svg></g></svg></g><defs></defs></svg><rect width="576" height="360" fill="none" stroke="none" visibility="hidden"></rect></g></svg></g></svg>